<?xml version="1.0" encoding="UTF-8" standalone="no"?>
<svg xmlns="http://www.w3.org/2000/svg" width="460mm" height="550mm" viewBox="0 0 460 550">
  <rect x="0" y="0" width="460" height="550" fill="#334155" stroke="#1e293b" stroke-width="1"/>
  <path d="M 6.900 60.000 L 6.900 45.929 L 13.100 45.929 L 13.100 60.000 L 6.900 60.000 Z" fill="#000000" stroke="#60a5fa" stroke-width="0.2"/>
  <path d="M 6.900 41.929 L 6.900 26.787 L 22.491 6.900 L 25.540 6.900 L 25.540 13.100 L 25.509 13.100 L 13.100 28.927 L 13.100 41.929 L 6.900 41.929 Z" fill="#000000" stroke="#60a5fa" stroke-width="0.2"/>
  <path d="M 29.460 6.900 L 32.509 6.900 L 48.100 26.787 L 48.100 41.929 L 41.900 41.929 L 41.900 28.927 L 29.491 13.100 L 29.460 13.100 L 29.460 6.900 Z" fill="#000000" stroke="#60a5fa" stroke-width="0.2"/>
  <path d="M 48.100 45.929 L 48.100 60.000 L 41.900 60.000 L 41.900 45.929 L 48.100 45.929 Z" fill="#000000" stroke="#60a5fa" stroke-width="0.2"/>
  <path d="M 10.000 35.471 L 45.000 35.471 L 45.000 41.671 L 10.000 41.671 L 10.000 35.471 Z" fill="#000000" stroke="#60a5fa" stroke-width="0.2"/>
  <path d="M 86.900 25.857 L 86.900 21.980 L 78.198 13.100 L 58.100 13.100 L 58.100 33.000 L 51.900 33.000 L 51.900 6.900 L 80.802 6.900 L 93.100 19.449 L 93.100 25.857 L 86.900 25.857 Z" fill="#000000" stroke="#60a5fa" stroke-width="0.2"/>
  <path d="M 58.100 37.000 L 58.100 56.900 L 78.198 56.900 L 86.900 48.020 L 86.900 44.143 L 93.100 44.143 L 93.100 50.551 L 80.802 63.100 L 51.900 63.100 L 51.900 37.000 L 58.100 37.000 Z" fill="#000000" stroke="#60a5fa" stroke-width="0.2"/>
  <path d="M 93.100 29.857 L 93.100 38.100 L 55.000 38.100 L 55.000 31.900 L 86.900 31.900 L 86.900 29.857 L 93.100 29.857 Z" fill="#000000" stroke="#60a5fa" stroke-width="0.2"/>
  <path d="M 93.100 35.000 L 93.100 40.143 L 86.900 40.143 L 86.900 35.000 L 93.100 35.000 Z" fill="#000000" stroke="#60a5fa" stroke-width="0.2"/>
  <path d="M 132.786 22.884 L 123.198 13.100 L 111.802 13.100 L 108.850 16.113 L 104.422 11.773 L 109.198 6.900 L 125.802 6.900 L 137.214 18.545 L 132.786 22.884 Z" fill="#000000" stroke="#60a5fa" stroke-width="0.2"/>
  <path d="M 106.078 18.941 L 103.100 21.980 L 103.100 48.020 L 106.078 51.059 L 101.650 55.398 L 96.900 50.551 L 96.900 19.449 L 101.650 14.602 L 106.078 18.941 Z" fill="#000000" stroke="#60a5fa" stroke-width="0.2"/>
  <path d="M 108.850 53.887 L 111.802 56.900 L 123.198 56.900 L 132.786 47.116 L 137.214 51.455 L 125.802 63.100 L 109.198 63.100 L 104.422 58.227 L 108.850 53.887 Z" fill="#000000" stroke="#60a5fa" stroke-width="0.2"/>
  <path d="M 176.900 33.000 L 176.900 21.980 L 168.198 13.100 L 148.100 13.100 L 148.100 33.000 L 141.900 33.000 L 141.900 6.900 L 170.802 6.900 L 183.100 19.449 L 183.100 33.000 L 176.900 33.000 Z" fill="#000000" stroke="#60a5fa" stroke-width="0.2"/>
  <path d="M 148.100 37.000 L 148.100 56.900 L 168.198 56.900 L 176.900 48.020 L 176.900 37.000 L 183.100 37.000 L 183.100 50.551 L 170.802 63.100 L 141.900 63.100 L 141.900 37.000 L 148.100 37.000 Z" fill="#000000" stroke="#60a5fa" stroke-width="0.2"/>
  <path d="M 225.000 13.100 L 193.100 13.100 L 193.100 20.500 L 186.900 20.500 L 186.900 6.900 L 225.000 6.900 L 225.000 13.100 Z" fill="#000000" stroke="#60a5fa" stroke-width="0.2"/>
  <path d="M 193.100 24.500 L 193.100 45.500 L 186.900 45.500 L 186.900 24.500 L 193.100 24.500 Z" fill="#000000" stroke="#60a5fa" stroke-width="0.2"/>
  <path d="M 193.100 49.500 L 193.100 56.900 L 225.000 56.900 L 225.000 63.100 L 186.900 63.100 L 186.900 49.500 L 193.100 49.500 Z" fill="#000000" stroke="#60a5fa" stroke-width="0.2"/>
  <path d="M 190.000 31.900 L 218.000 31.900 L 218.000 38.100 L 190.000 38.100 L 190.000 31.900 Z" fill="#000000" stroke="#60a5fa" stroke-width="0.2"/>
  <path d="M 270.000 13.100 L 238.100 13.100 L 238.100 33.000 L 231.900 33.000 L 231.900 6.900 L 270.000 6.900 L 270.000 13.100 Z" fill="#000000" stroke="#60a5fa" stroke-width="0.2"/>
  <path d="M 238.100 37.000 L 238.100 60.000 L 231.900 60.000 L 231.900 37.000 L 238.100 37.000 Z" fill="#000000" stroke="#60a5fa" stroke-width="0.2"/>
  <path d="M 235.000 31.900 L 263.000 31.900 L 263.000 38.100 L 235.000 38.100 L 235.000 31.900 Z" fill="#000000" stroke="#60a5fa" stroke-width="0.2"/>
  <path d="M 312.786 22.884 L 303.198 13.100 L 291.802 13.100 L 283.100 21.980 L 283.100 33.000 L 276.900 33.000 L 276.900 19.449 L 289.198 6.900 L 305.802 6.900 L 317.214 18.545 L 312.786 22.884 Z" fill="#000000" stroke="#60a5fa" stroke-width="0.2"/>
  <path d="M 283.100 37.000 L 283.100 48.020 L 291.802 56.900 L 303.198 56.900 L 311.900 48.020 L 311.900 44.143 L 318.100 44.143 L 318.100 50.551 L 305.802 63.100 L 289.198 63.100 L 276.900 50.551 L 276.900 37.000 L 283.100 37.000 Z" fill="#000000" stroke="#60a5fa" stroke-width="0.2"/>
  <path d="M 311.900 40.143 L 311.900 38.100 L 301.000 38.100 L 301.000 31.900 L 318.100 31.900 L 318.100 40.143 L 311.900 40.143 Z" fill="#000000" stroke="#60a5fa" stroke-width="0.2"/>
  <path d="M 328.100 10.000 L 328.100 33.000 L 321.900 33.000 L 321.900 10.000 L 328.100 10.000 Z" fill="#000000" stroke="#60a5fa" stroke-width="0.2"/>
  <path d="M 328.100 37.000 L 328.100 60.000 L 321.900 60.000 L 321.900 37.000 L 328.100 37.000 Z" fill="#000000" stroke="#60a5fa" stroke-width="0.2"/>
  <path d="M 363.100 10.000 L 363.100 33.000 L 356.900 33.000 L 356.900 10.000 L 363.100 10.000 Z" fill="#000000" stroke="#60a5fa" stroke-width="0.2"/>
  <path d="M 363.100 37.000 L 363.100 60.000 L 356.900 60.000 L 356.900 37.000 L 363.100 37.000 Z" fill="#000000" stroke="#60a5fa" stroke-width="0.2"/>
  <path d="M 325.000 31.900 L 360.000 31.900 L 360.000 38.100 L 325.000 38.100 L 325.000 31.900 Z" fill="#000000" stroke="#60a5fa" stroke-width="0.2"/>
  <path d="M 390.600 10.000 L 390.600 33.000 L 384.400 33.000 L 384.400 10.000 L 390.600 10.000 Z" fill="#000000" stroke="#60a5fa" stroke-width="0.2"/>
  <path d="M 390.600 37.000 L 390.600 60.000 L 384.400 60.000 L 384.400 37.000 L 390.600 37.000 Z" fill="#000000" stroke="#60a5fa" stroke-width="0.2"/>
  <path d="M 415.000 6.900 L 450.000 6.900 L 450.000 13.100 L 415.000 13.100 L 415.000 6.900 Z" fill="#000000" stroke="#60a5fa" stroke-width="0.2"/>
  <path d="M 442.600 10.000 L 442.600 27.643 L 436.400 27.643 L 436.400 10.000 L 442.600 10.000 Z" fill="#000000" stroke="#60a5fa" stroke-width="0.2"/>
  <path d="M 442.600 31.643 L 442.600 50.551 L 430.302 63.100 L 416.251 63.100 L 412.053 50.248 L 417.947 48.323 L 420.749 56.900 L 427.698 56.900 L 436.400 48.020 L 436.400 31.643 L 442.600 31.643 Z" fill="#000000" stroke="#60a5fa" stroke-width="0.2"/>
  <path d="M 13.100 70.000 L 13.100 93.000 L 6.900 93.000 L 6.900 70.000 L 13.100 70.000 Z" fill="#000000" stroke="#60a5fa" stroke-width="0.2"/>
  <path d="M 13.100 97.000 L 13.100 120.000 L 6.900 120.000 L 6.900 97.000 L 13.100 97.000 Z" fill="#000000" stroke="#60a5fa" stroke-width="0.2"/>
  <path d="M 24.092 108.876 L 5.044 95.269 L 20.460 81.505 L 24.590 86.129 L 14.956 94.731 L 27.696 103.831 L 24.092 108.876 Z" fill="#000000" stroke="#60a5fa" stroke-width="0.2"/>
  <path d="M 23.410 78.871 L 35.935 67.688 L 40.065 72.312 L 27.540 83.495 L 23.410 78.871 Z" fill="#000000" stroke="#60a5fa" stroke-width="0.2"/>
  <path d="M 30.908 106.124 L 46.802 117.477 L 43.198 122.523 L 27.304 111.169 L 30.908 106.124 Z" fill="#000000" stroke="#60a5fa" stroke-width="0.2"/>
  <path d="M 58.100 70.000 L 58.100 93.000 L 51.900 93.000 L 51.900 70.000 L 58.100 70.000 Z" fill="#000000" stroke="#60a5fa" stroke-width="0.2"/>
  <path d="M 58.100 97.000 L 58.100 116.900 L 90.000 116.900 L 90.000 123.100 L 51.900 123.100 L 51.900 97.000 L 58.100 97.000 Z" fill="#000000" stroke="#60a5fa" stroke-width="0.2"/>
  <path d="M 131.900 93.000 L 133.136 75.913 L 117.500 100.406 L 101.864 75.913 L 103.100 93.000 L 96.900 93.000 L 98.136 64.087 L 117.500 89.594 L 136.864 64.087 L 138.100 93.000 L 131.900 93.000 Z" fill="#000000" stroke="#60a5fa" stroke-width="0.2"/>
  <path d="M 103.100 97.000 L 103.100 120.000 L 96.900 120.000 L 96.900 97.000 L 103.100 97.000 Z" fill="#000000" stroke="#60a5fa" stroke-width="0.2"/>
  <path d="M 138.100 97.000 L 138.100 120.000 L 131.900 120.000 L 131.900 97.000 L 138.100 97.000 Z" fill="#000000" stroke="#60a5fa" stroke-width="0.2"/>
  <path d="M 158.821 95.150 L 146.864 75.913 L 148.100 93.000 L 141.900 93.000 L 143.136 64.087 L 163.900 91.595 L 158.821 95.150 Z" fill="#000000" stroke="#60a5fa" stroke-width="0.2"/>
  <path d="M 148.100 97.000 L 148.100 120.000 L 141.900 120.000 L 141.900 97.000 L 148.100 97.000 Z" fill="#000000" stroke="#60a5fa" stroke-width="0.2"/>
  <path d="M 166.179 94.850 L 178.136 114.087 L 176.900 97.000 L 183.100 97.000 L 181.864 125.913 L 161.100 98.405 L 166.179 94.850 Z" fill="#000000" stroke="#60a5fa" stroke-width="0.2"/>
  <path d="M 183.100 70.000 L 183.100 93.000 L 176.900 93.000 L 176.900 70.000 L 183.100 70.000 Z" fill="#000000" stroke="#60a5fa" stroke-width="0.2"/>
  <path d="M 186.900 93.000 L 186.900 79.449 L 199.198 66.900 L 215.802 66.900 L 228.100 79.449 L 228.100 93.000 L 221.900 93.000 L 221.900 81.980 L 213.198 73.100 L 201.802 73.100 L 193.100 81.980 L 193.100 93.000 L 186.900 93.000 Z" fill="#000000" stroke="#60a5fa" stroke-width="0.2"/>
  <path d="M 228.100 97.000 L 228.100 110.551 L 215.802 123.100 L 199.198 123.100 L 186.900 110.551 L 186.900 97.000 L 193.100 97.000 L 193.100 108.020 L 201.802 116.900 L 213.198 116.900 L 221.900 108.020 L 221.900 97.000 L 228.100 97.000 Z" fill="#000000" stroke="#60a5fa" stroke-width="0.2"/>
  <path d="M 266.900 85.857 L 266.900 81.980 L 258.198 73.100 L 238.100 73.100 L 238.100 93.000 L 231.900 93.000 L 231.900 66.900 L 260.802 66.900 L 273.100 79.449 L 273.100 85.857 L 266.900 85.857 Z" fill="#000000" stroke="#60a5fa" stroke-width="0.2"/>
  <path d="M 238.100 97.000 L 238.100 120.000 L 231.900 120.000 L 231.900 97.000 L 238.100 97.000 Z" fill="#000000" stroke="#60a5fa" stroke-width="0.2"/>
  <path d="M 273.100 89.857 L 273.100 98.100 L 235.000 98.100 L 235.000 91.900 L 266.900 91.900 L 266.900 89.857 L 273.100 89.857 Z" fill="#000000" stroke="#60a5fa" stroke-width="0.2"/>
  <path d="M 276.900 91.214 L 276.900 79.449 L 289.198 66.900 L 305.802 66.900 L 318.100 79.449 L 318.100 91.214 L 311.900 91.214 L 311.900 81.980 L 303.198 73.100 L 291.802 73.100 L 283.100 81.980 L 283.100 91.214 L 276.900 91.214 Z" fill="#000000" stroke="#60a5fa" stroke-width="0.2"/>
  <path d="M 318.100 95.214 L 318.100 106.980 L 305.802 119.529 L 289.198 119.529 L 276.900 106.980 L 276.900 95.214 L 283.100 95.214 L 283.100 104.449 L 291.802 113.329 L 303.198 113.329 L 311.900 104.449 L 311.900 95.214 L 318.100 95.214 Z" fill="#000000" stroke="#60a5fa" stroke-width="0.2"/>
  <path d="M 306.998 103.878 L 317.498 118.164 L 312.502 121.836 L 302.002 107.550 L 306.998 103.878 Z" fill="#000000" stroke="#60a5fa" stroke-width="0.2"/>
  <path d="M 356.900 85.857 L 356.900 81.980 L 348.198 73.100 L 328.100 73.100 L 328.100 93.000 L 321.900 93.000 L 321.900 66.900 L 350.802 66.900 L 363.100 79.449 L 363.100 85.857 L 356.900 85.857 Z" fill="#000000" stroke="#60a5fa" stroke-width="0.2"/>
  <path d="M 328.100 97.000 L 328.100 120.000 L 321.900 120.000 L 321.900 97.000 L 328.100 97.000 Z" fill="#000000" stroke="#60a5fa" stroke-width="0.2"/>
  <path d="M 363.100 89.857 L 363.100 98.100 L 325.000 98.100 L 325.000 91.900 L 356.900 91.900 L 356.900 89.857 L 363.100 89.857 Z" fill="#000000" stroke="#60a5fa" stroke-width="0.2"/>
  <path d="M 345.040 93.222 L 352.650 104.095 L 347.571 107.650 L 339.960 96.778 L 345.040 93.222 Z" fill="#000000" stroke="#60a5fa" stroke-width="0.2"/>
  <path d="M 354.929 107.350 L 362.540 118.222 L 357.460 121.778 L 349.850 110.905 L 354.929 107.350 Z" fill="#000000" stroke="#60a5fa" stroke-width="0.2"/>
  <path d="M 402.786 82.884 L 393.198 73.100 L 381.802 73.100 L 373.100 81.980 L 373.100 84.071 L 366.900 84.071 L 366.900 79.449 L 379.198 66.900 L 395.802 66.900 L 407.214 78.545 L 402.786 82.884 Z" fill="#000000" stroke="#60a5fa" stroke-width="0.2"/>
  <path d="M 373.100 88.071 L 373.100 89.788 L 381.454 95.471 L 395.454 95.471 L 406.744 103.151 L 403.256 108.277 L 393.546 101.671 L 379.546 101.671 L 366.900 93.069 L 366.900 88.071 L 373.100 88.071 Z" fill="#000000" stroke="#60a5fa" stroke-width="0.2"/>
  <path d="M 407.214 111.455 L 395.802 123.100 L 379.198 123.100 L 367.786 111.455 L 372.214 107.116 L 381.802 116.900 L 393.198 116.900 L 402.786 107.116 L 407.214 111.455 Z" fill="#000000" stroke="#60a5fa" stroke-width="0.2"/>
  <path d="M 415.000 66.900 L 450.000 66.900 L 450.000 73.100 L 415.000 73.100 L 415.000 66.900 Z" fill="#000000" stroke="#60a5fa" stroke-width="0.2"/>
  <path d="M 435.600 70.000 L 435.600 93.000 L 429.400 93.000 L 429.400 70.000 L 435.600 70.000 Z" fill="#000000" stroke="#60a5fa" stroke-width="0.2"/>
  <path d="M 435.600 97.000 L 435.600 120.000 L 429.400 120.000 L 429.400 97.000 L 435.600 97.000 Z" fill="#000000" stroke="#60a5fa" stroke-width="0.2"/>
  <path d="M 13.100 130.000 L 13.100 147.643 L 6.900 147.643 L 6.900 130.000 L 13.100 130.000 Z" fill="#000000" stroke="#60a5fa" stroke-width="0.2"/>
  <path d="M 13.100 151.643 L 13.100 168.020 L 21.802 176.900 L 33.198 176.900 L 41.900 168.020 L 41.900 151.643 L 48.100 151.643 L 48.100 170.551 L 35.802 183.100 L 19.198 183.100 L 6.900 170.551 L 6.900 151.643 L 13.100 151.643 Z" fill="#000000" stroke="#60a5fa" stroke-width="0.2"/>
  <path d="M 41.900 147.643 L 41.900 130.000 L 48.100 130.000 L 48.100 147.643 L 41.900 147.643 Z" fill="#000000" stroke="#60a5fa" stroke-width="0.2"/>
  <path d="M 58.100 130.000 L 58.100 143.633 L 64.907 159.068 L 59.234 161.570 L 51.900 144.939 L 51.900 130.000 L 58.100 130.000 Z" fill="#000000" stroke="#60a5fa" stroke-width="0.2"/>
  <path d="M 66.516 162.716 L 72.771 176.900 L 72.229 176.900 L 78.484 162.716 L 84.157 165.218 L 76.271 183.100 L 68.729 183.100 L 60.843 165.218 L 66.516 162.716 Z" fill="#000000" stroke="#60a5fa" stroke-width="0.2"/>
  <path d="M 93.100 130.000 L 93.100 144.939 L 85.766 161.570 L 80.093 159.068 L 86.900 143.633 L 86.900 130.000 L 93.100 130.000 Z" fill="#000000" stroke="#60a5fa" stroke-width="0.2"/>
  <path d="M 103.070 129.570 L 106.293 152.590 L 100.153 153.450 L 96.930 130.430 L 103.070 129.570 Z" fill="#000000" stroke="#60a5fa" stroke-width="0.2"/>
  <path d="M 106.847 156.550 L 107.547 173.824 L 117.500 141.657 L 127.453 173.824 L 128.153 156.550 L 134.293 157.410 L 128.547 186.176 L 117.500 154.057 L 106.453 186.176 L 100.707 157.410 L 106.847 156.550 Z" fill="#000000" stroke="#60a5fa" stroke-width="0.2"/>
  <path d="M 128.707 152.590 L 131.930 129.570 L 138.070 130.430 L 134.847 153.450 L 128.707 152.590 Z" fill="#000000" stroke="#60a5fa" stroke-width="0.2"/>
  <path d="M 147.540 128.222 L 163.900 151.595 L 158.821 155.150 L 142.460 131.778 L 147.540 128.222 Z" fill="#000000" stroke="#60a5fa" stroke-width="0.2"/>
  <path d="M 166.179 154.850 L 182.540 178.222 L 177.460 181.778 L 161.100 158.405 L 166.179 154.850 Z" fill="#000000" stroke="#60a5fa" stroke-width="0.2"/>
  <path d="M 182.540 131.778 L 166.179 155.150 L 161.100 151.595 L 177.460 128.222 L 182.540 131.778 Z" fill="#000000" stroke="#60a5fa" stroke-width="0.2"/>
  <path d="M 163.900 158.405 L 147.540 181.778 L 142.460 178.222 L 158.821 154.850 L 163.900 158.405 Z" fill="#000000" stroke="#60a5fa" stroke-width="0.2"/>
  <path d="M 192.540 128.222 L 207.500 149.594 L 222.460 128.222 L 227.540 131.778 L 207.500 160.406 L 187.460 131.778 L 192.540 128.222 Z" fill="#000000" stroke="#60a5fa" stroke-width="0.2"/>
  <path d="M 210.600 155.000 L 210.600 165.500 L 204.400 165.500 L 204.400 155.000 L 210.600 155.000 Z" fill="#000000" stroke="#60a5fa" stroke-width="0.2"/>
  <path d="M 210.600 169.500 L 210.600 180.000 L 204.400 180.000 L 204.400 169.500 L 210.600 169.500 Z" fill="#000000" stroke="#60a5fa" stroke-width="0.2"/>
  <path d="M 235.000 126.900 L 275.499 127.137 L 256.179 155.150 L 251.100 151.595 L 264.501 132.863 L 235.000 133.100 L 235.000 126.900 Z" fill="#000000" stroke="#60a5fa" stroke-width="0.2"/>
  <path d="M 253.900 158.405 L 240.499 177.137 L 270.000 176.900 L 270.000 183.100 L 229.501 182.863 L 248.821 154.850 L 253.900 158.405 Z" fill="#000000" stroke="#60a5fa" stroke-width="0.2"/>
  <path d="M 276.900 153.000 L 276.900 139.449 L 289.198 126.900 L 305.802 126.900 L 318.100 139.449 L 318.100 153.000 L 311.900 153.000 L 311.900 141.980 L 303.198 133.100 L 291.802 133.100 L 283.100 141.980 L 283.100 153.000 L 276.900 153.000 Z" fill="#000000" stroke="#60a5fa" stroke-width="0.2"/>
  <path d="M 318.100 157.000 L 318.100 170.551 L 305.802 183.100 L 289.198 183.100 L 276.900 170.551 L 276.900 157.000 L 283.100 157.000 L 283.100 168.020 L 291.802 176.900 L 303.198 176.900 L 311.900 168.020 L 311.900 157.000 L 318.100 157.000 Z" fill="#000000" stroke="#60a5fa" stroke-width="0.2"/>
  <path d="M 329.786 138.545 L 344.844 124.260 L 345.600 153.000 L 339.400 153.000 L 340.156 135.740 L 334.214 142.884 L 329.786 138.545 Z" fill="#000000" stroke="#60a5fa" stroke-width="0.2"/>
  <path d="M 345.600 157.000 L 345.600 180.000 L 339.400 180.000 L 339.400 157.000 L 345.600 157.000 Z" fill="#000000" stroke="#60a5fa" stroke-width="0.2"/>
  <path d="M 332.000 176.900 L 353.000 176.900 L 353.000 183.100 L 332.000 183.100 L 332.000 176.900 Z" fill="#000000" stroke="#60a5fa" stroke-width="0.2"/>
  <path d="M 367.786 138.545 L 379.198 126.900 L 395.802 126.900 L 408.100 139.449 L 408.100 152.900 L 390.991 166.866 L 387.070 162.063 L 401.900 149.957 L 401.900 141.980 L 393.198 133.100 L 381.802 133.100 L 372.214 142.884 L 367.786 138.545 Z" fill="#000000" stroke="#60a5fa" stroke-width="0.2"/>
  <path d="M 387.930 169.365 L 375.840 177.919 L 405.000 176.900 L 405.000 183.100 L 364.160 182.081 L 384.009 164.562 L 387.930 169.365 Z" fill="#000000" stroke="#60a5fa" stroke-width="0.2"/>
  <path d="M 412.786 138.545 L 424.198 126.900 L 440.802 126.900 L 453.100 139.449 L 453.100 144.071 L 446.900 144.071 L 446.900 141.980 L 438.198 133.100 L 426.802 133.100 L 417.214 142.884 L 412.786 138.545 Z" fill="#000000" stroke="#60a5fa" stroke-width="0.2"/>
  <path d="M 453.100 148.071 L 453.100 153.837 L 442.200 155.000 L 453.100 156.163 L 453.100 161.929 L 446.900 161.929 L 446.900 160.980 L 429.800 155.000 L 446.900 149.020 L 446.900 148.071 L 453.100 148.071 Z" fill="#000000" stroke="#60a5fa" stroke-width="0.2"/>
  <path d="M 453.100 165.929 L 453.100 170.551 L 440.802 183.100 L 424.198 183.100 L 412.786 171.455 L 417.214 167.116 L 426.802 176.900 L 438.198 176.900 L 446.900 168.020 L 446.900 165.929 L 453.100 165.929 Z" fill="#000000" stroke="#60a5fa" stroke-width="0.2"/>
  <path d="M 31.400 240.000 L 31.400 227.000 L 37.600 227.000 L 37.600 240.000 L 31.400 240.000 Z" fill="#000000" stroke="#60a5fa" stroke-width="0.2"/>
  <path d="M 31.400 223.000 L 32.517 195.874 L 25.919 206.372 L 20.988 202.613 L 36.483 184.126 L 37.600 223.000 L 31.400 223.000 Z" fill="#000000" stroke="#60a5fa" stroke-width="0.2"/>
  <path d="M 23.512 209.529 L 15.556 219.392 L 45.000 219.043 L 45.000 225.243 L 4.444 224.894 L 18.581 205.771 L 23.512 209.529 Z" fill="#000000" stroke="#60a5fa" stroke-width="0.2"/>
  <path d="M 90.000 193.100 L 58.100 193.100 L 58.100 198.714 L 51.900 198.714 L 51.900 186.900 L 90.000 186.900 L 90.000 193.100 Z" fill="#000000" stroke="#60a5fa" stroke-width="0.2"/>
  <path d="M 58.100 202.714 L 58.100 208.329 L 80.802 208.329 L 93.100 220.877 L 93.100 223.714 L 86.900 223.714 L 86.900 223.409 L 78.198 214.529 L 51.900 214.529 L 51.900 202.714 L 58.100 202.714 Z" fill="#000000" stroke="#60a5fa" stroke-width="0.2"/>
  <path d="M 93.100 227.714 L 93.100 230.551 L 80.802 243.100 L 64.198 243.100 L 52.786 231.455 L 57.214 227.116 L 66.802 236.900 L 78.198 236.900 L 86.900 228.020 L 86.900 227.714 L 93.100 227.714 Z" fill="#000000" stroke="#60a5fa" stroke-width="0.2"/>
  <path d="M 124.500 193.100 L 111.802 193.100 L 103.100 201.980 L 103.100 205.857 L 96.900 205.857 L 96.900 199.449 L 109.198 186.900 L 124.500 186.900 L 124.500 193.100 Z" fill="#000000" stroke="#60a5fa" stroke-width="0.2"/>
  <path d="M 103.100 209.857 L 103.100 220.143 L 96.900 220.143 L 96.900 209.857 L 103.100 209.857 Z" fill="#000000" stroke="#60a5fa" stroke-width="0.2"/>
  <path d="M 103.100 224.143 L 103.100 228.020 L 111.802 236.900 L 123.198 236.900 L 131.900 228.020 L 131.900 225.929 L 138.100 225.929 L 138.100 230.551 L 125.802 243.100 L 109.198 243.100 L 96.900 230.551 L 96.900 224.143 L 103.100 224.143 Z" fill="#000000" stroke="#60a5fa" stroke-width="0.2"/>
  <path d="M 131.900 221.929 L 131.900 220.212 L 123.546 214.529 L 100.000 214.529 L 100.000 208.329 L 125.454 208.329 L 138.100 216.931 L 138.100 221.929 L 131.900 221.929 Z" fill="#000000" stroke="#60a5fa" stroke-width="0.2"/>
  <path d="M 145.000 186.900 L 184.664 186.900 L 173.130 214.362 L 167.414 211.961 L 175.336 193.100 L 145.000 193.100 L 145.000 186.900 Z" fill="#000000" stroke="#60a5fa" stroke-width="0.2"/>
  <path d="M 171.586 218.039 L 161.858 241.200 L 156.142 238.800 L 165.870 215.638 L 171.586 218.039 Z" fill="#000000" stroke="#60a5fa" stroke-width="0.2"/>
  <path d="M 186.900 203.179 L 186.900 199.449 L 199.198 186.900 L 215.802 186.900 L 228.100 199.449 L 228.100 203.179 L 221.900 203.179 L 221.900 201.980 L 213.198 193.100 L 201.802 193.100 L 193.100 201.980 L 193.100 203.179 L 186.900 203.179 Z" fill="#000000" stroke="#60a5fa" stroke-width="0.2"/>
  <path d="M 228.100 207.179 L 228.100 211.541 L 215.245 218.100 L 199.755 218.100 L 186.900 211.541 L 186.900 207.179 L 193.100 207.179 L 193.100 207.744 L 201.245 211.900 L 213.755 211.900 L 221.900 207.744 L 221.900 207.179 L 228.100 207.179 Z" fill="#000000" stroke="#60a5fa" stroke-width="0.2"/>
  <path d="M 201.909 217.761 L 193.100 222.256 L 193.100 222.821 L 186.900 222.821 L 186.900 218.459 L 199.091 212.239 L 201.909 217.761 Z" fill="#000000" stroke="#60a5fa" stroke-width="0.2"/>
  <path d="M 193.100 226.821 L 193.100 228.020 L 201.802 236.900 L 213.198 236.900 L 221.900 228.020 L 221.900 226.821 L 228.100 226.821 L 228.100 230.551 L 215.802 243.100 L 199.198 243.100 L 186.900 230.551 L 186.900 226.821 L 193.100 226.821 Z" fill="#000000" stroke="#60a5fa" stroke-width="0.2"/>
  <path d="M 221.900 222.821 L 221.900 222.256 L 213.091 217.761 L 215.909 212.239 L 228.100 218.459 L 228.100 222.821 L 221.900 222.821 Z" fill="#000000" stroke="#60a5fa" stroke-width="0.2"/>
  <path d="M 231.900 204.071 L 231.900 199.449 L 244.198 186.900 L 260.802 186.900 L 273.100 199.449 L 273.100 205.857 L 266.900 205.857 L 266.900 201.980 L 258.198 193.100 L 246.802 193.100 L 238.100 201.980 L 238.100 204.071 L 231.900 204.071 Z" fill="#000000" stroke="#60a5fa" stroke-width="0.2"/>
  <path d="M 273.100 209.857 L 273.100 220.143 L 266.900 220.143 L 266.900 209.857 L 273.100 209.857 Z" fill="#000000" stroke="#60a5fa" stroke-width="0.2"/>
  <path d="M 273.100 224.143 L 273.100 230.551 L 260.802 243.100 L 245.500 243.100 L 245.500 236.900 L 258.198 236.900 L 266.900 228.020 L 266.900 224.143 L 273.100 224.143 Z" fill="#000000" stroke="#60a5fa" stroke-width="0.2"/>
  <path d="M 238.100 208.071 L 238.100 209.788 L 246.454 215.471 L 258.546 215.471 L 268.256 208.865 L 271.744 213.992 L 260.454 221.671 L 244.546 221.671 L 231.900 213.069 L 231.900 208.071 L 238.100 208.071 Z" fill="#000000" stroke="#60a5fa" stroke-width="0.2"/>
  <path d="M 283.500 194.043 L 314.600 194.043 L 314.600 209.123 L 303.214 220.741 L 298.786 216.402 L 308.400 206.591 L 308.400 200.243 L 283.500 200.243 L 283.500 194.043 Z" fill="#000000" stroke="#60a5fa" stroke-width="0.2"/>
  <path d="M 296.974 198.017 L 292.287 213.959 L 286.339 212.210 L 291.026 196.268 L 296.974 198.017 Z" fill="#000000" stroke="#60a5fa" stroke-width="0.2"/>
  <path d="M 291.161 217.790 L 286.474 233.732 L 280.526 231.983 L 285.213 216.041 L 291.161 217.790 Z" fill="#000000" stroke="#60a5fa" stroke-width="0.2"/>
  <path d="M 355.214 195.741 L 334.214 217.170 L 329.786 212.830 L 350.786 191.402 L 355.214 195.741 Z" fill="#000000" stroke="#60a5fa" stroke-width="0.2"/>
  <path d="M 345.600 204.286 L 345.600 220.143 L 339.400 220.143 L 339.400 204.286 L 345.600 204.286 Z" fill="#000000" stroke="#60a5fa" stroke-width="0.2"/>
  <path d="M 345.600 224.143 L 345.600 240.000 L 339.400 240.000 L 339.400 224.143 L 345.600 224.143 Z" fill="#000000" stroke="#60a5fa" stroke-width="0.2"/>
  <path d="M 390.600 190.000 L 390.600 200.714 L 384.400 200.714 L 384.400 190.000 L 390.600 190.000 Z" fill="#000000" stroke="#60a5fa" stroke-width="0.2"/>
  <path d="M 373.500 197.614 L 404.600 197.614 L 404.600 212.576 L 392.894 226.227 L 388.187 222.191 L 398.400 210.281 L 398.400 203.814 L 373.500 203.814 L 373.500 197.614 Z" fill="#000000" stroke="#60a5fa" stroke-width="0.2"/>
  <path d="M 390.313 229.237 L 379.353 242.018 L 374.647 237.982 L 385.606 225.202 L 390.313 229.237 Z" fill="#000000" stroke="#60a5fa" stroke-width="0.2"/>
  <path d="M 422.000 190.471 L 443.000 190.471 L 443.000 196.671 L 422.000 196.671 L 422.000 190.471 Z" fill="#000000" stroke="#60a5fa" stroke-width="0.2"/>
  <path d="M 435.600 193.571 L 435.600 213.000 L 429.400 213.000 L 429.400 193.571 L 435.600 193.571 Z" fill="#000000" stroke="#60a5fa" stroke-width="0.2"/>
  <path d="M 435.600 217.000 L 435.600 236.429 L 429.400 236.429 L 429.400 217.000 L 435.600 217.000 Z" fill="#000000" stroke="#60a5fa" stroke-width="0.2"/>
  <path d="M 415.000 233.329 L 450.000 233.329 L 450.000 239.529 L 415.000 239.529 L 415.000 233.329 Z" fill="#000000" stroke="#60a5fa" stroke-width="0.2"/>
  <path d="M 13.500 261.186 L 41.500 261.186 L 41.500 267.386 L 13.500 267.386 L 13.500 261.186 Z" fill="#000000" stroke="#60a5fa" stroke-width="0.2"/>
  <path d="M 30.600 250.000 L 30.600 267.643 L 24.400 267.643 L 24.400 250.000 L 30.600 250.000 Z" fill="#000000" stroke="#60a5fa" stroke-width="0.2"/>
  <path d="M 30.600 271.643 L 30.600 290.551 L 19.214 302.170 L 14.786 297.830 L 24.400 288.020 L 24.400 271.643 L 30.600 271.643 Z" fill="#000000" stroke="#60a5fa" stroke-width="0.2"/>
  <path d="M 33.672 269.857 L 44.172 287.714 L 38.828 290.857 L 28.328 273.000 L 33.672 269.857 Z" fill="#000000" stroke="#60a5fa" stroke-width="0.2"/>
  <path d="M 58.500 257.614 L 86.100 257.614 L 86.100 271.980 L 81.348 284.911 L 75.528 282.772 L 79.900 270.877 L 79.900 263.814 L 58.500 263.814 L 58.500 257.614 Z" fill="#000000" stroke="#60a5fa" stroke-width="0.2"/>
  <path d="M 79.972 288.656 L 75.410 301.069 L 69.590 298.931 L 74.152 286.518 L 79.972 288.656 Z" fill="#000000" stroke="#60a5fa" stroke-width="0.2"/>
  <path d="M 68.552 250.544 L 61.552 289.830 L 55.448 288.742 L 62.448 249.456 L 68.552 250.544 Z" fill="#000000" stroke="#60a5fa" stroke-width="0.2"/>
  <path d="M 78.498 251.735 L 88.998 266.021 L 84.002 269.693 L 73.502 255.407 L 78.498 251.735 Z" fill="#000000" stroke="#60a5fa" stroke-width="0.2"/>
  <path d="M 107.000 257.614 L 128.000 257.614 L 128.000 263.814 L 107.000 263.814 L 107.000 257.614 Z" fill="#000000" stroke="#60a5fa" stroke-width="0.2"/>
  <path d="M 103.500 268.329 L 131.500 268.329 L 131.500 274.529 L 103.500 274.529 L 103.500 268.329 Z" fill="#000000" stroke="#60a5fa" stroke-width="0.2"/>
  <path d="M 120.570 250.430 L 117.347 273.450 L 111.207 272.590 L 114.430 249.570 L 120.570 250.430 Z" fill="#000000" stroke="#60a5fa" stroke-width="0.2"/>
  <path d="M 116.793 277.410 L 113.774 294.735 L 119.256 290.294 L 122.744 295.420 L 107.226 305.265 L 110.653 276.550 L 116.793 277.410 Z" fill="#000000" stroke="#60a5fa" stroke-width="0.2"/>
  <path d="M 175.214 255.741 L 161.216 269.027 L 182.133 268.838 L 167.894 286.227 L 163.187 282.191 L 170.867 274.019 L 149.784 273.830 L 170.786 251.402 L 175.214 255.741 Z" fill="#000000" stroke="#60a5fa" stroke-width="0.2"/>
  <path d="M 165.313 289.237 L 154.353 302.018 L 149.647 297.982 L 160.606 285.202 L 165.313 289.237 Z" fill="#000000" stroke="#60a5fa" stroke-width="0.2"/>
  <path d="M 219.619 256.215 L 202.119 266.930 L 198.881 261.642 L 216.381 250.928 L 219.619 256.215 Z" fill="#000000" stroke="#60a5fa" stroke-width="0.2"/>
  <path d="M 193.500 268.329 L 221.500 268.329 L 221.500 274.529 L 193.500 274.529 L 193.500 268.329 Z" fill="#000000" stroke="#60a5fa" stroke-width="0.2"/>
  <path d="M 210.542 264.882 L 207.427 280.778 L 201.342 279.585 L 204.458 263.689 L 210.542 264.882 Z" fill="#000000" stroke="#60a5fa" stroke-width="0.2"/>
  <path d="M 206.658 284.700 L 203.542 300.596 L 197.458 299.404 L 200.573 283.508 L 206.658 284.700 Z" fill="#000000" stroke="#60a5fa" stroke-width="0.2"/>
  <path d="M 238.500 254.043 L 269.600 254.043 L 269.600 273.000 L 263.400 273.000 L 263.400 260.243 L 238.500 260.243 L 238.500 254.043 Z" fill="#000000" stroke="#60a5fa" stroke-width="0.2"/>
  <path d="M 269.600 277.000 L 269.600 295.957 L 238.500 295.957 L 238.500 289.757 L 263.400 289.757 L 263.400 277.000 L 269.600 277.000 Z" fill="#000000" stroke="#60a5fa" stroke-width="0.2"/>
  <path d="M 283.500 261.186 L 311.500 261.186 L 311.500 267.386 L 283.500 267.386 L 283.500 261.186 Z" fill="#000000" stroke="#60a5fa" stroke-width="0.2"/>
  <path d="M 293.600 253.571 L 293.600 280.877 L 299.714 287.116 L 295.286 291.455 L 287.400 283.409 L 287.400 253.571 L 293.600 253.571 Z" fill="#000000" stroke="#60a5fa" stroke-width="0.2"/>
  <path d="M 307.600 253.571 L 307.600 274.786 L 301.400 274.786 L 301.400 253.571 L 307.600 253.571 Z" fill="#000000" stroke="#60a5fa" stroke-width="0.2"/>
  <path d="M 307.600 278.786 L 307.600 300.000 L 301.400 300.000 L 301.400 278.786 L 307.600 278.786 Z" fill="#000000" stroke="#60a5fa" stroke-width="0.2"/>
  <path d="M 333.409 257.953 L 340.409 261.524 L 337.591 267.047 L 330.591 263.476 L 333.409 257.953 Z" fill="#000000" stroke="#60a5fa" stroke-width="0.2"/>
  <path d="M 333.409 272.239 L 340.409 275.810 L 337.591 281.333 L 330.591 277.761 L 333.409 272.239 Z" fill="#000000" stroke="#60a5fa" stroke-width="0.2"/>
  <path d="M 329.216 298.636 L 338.840 278.996 L 344.407 281.724 L 334.784 301.364 L 329.216 298.636 Z" fill="#000000" stroke="#60a5fa" stroke-width="0.2"/>
  <path d="M 340.593 275.419 L 350.216 255.779 L 355.784 258.507 L 346.160 278.147 L 340.593 275.419 Z" fill="#000000" stroke="#60a5fa" stroke-width="0.2"/>
  <path d="M 373.500 257.614 L 403.172 257.614 L 391.172 280.063 L 385.705 277.140 L 392.828 263.814 L 373.500 263.814 L 373.500 257.614 Z" fill="#000000" stroke="#60a5fa" stroke-width="0.2"/>
  <path d="M 389.295 283.574 L 379.734 301.461 L 374.266 298.539 L 383.828 280.652 L 389.295 283.574 Z" fill="#000000" stroke="#60a5fa" stroke-width="0.2"/>
  <path d="M 389.940 276.659 L 403.940 294.516 L 399.060 298.341 L 385.060 280.484 L 389.940 276.659 Z" fill="#000000" stroke="#60a5fa" stroke-width="0.2"/>
  <path d="M 418.500 257.614 L 446.500 257.614 L 446.500 263.814 L 418.500 263.814 L 418.500 257.614 Z" fill="#000000" stroke="#60a5fa" stroke-width="0.2"/>
  <path d="M 428.600 260.714 L 428.600 286.186 L 443.000 286.186 L 443.000 292.386 L 422.400 292.386 L 422.400 260.714 L 428.600 260.714 Z" fill="#000000" stroke="#60a5fa" stroke-width="0.2"/>
  <path d="M 442.600 250.000 L 442.600 273.000 L 436.400 273.000 L 436.400 250.000 L 442.600 250.000 Z" fill="#000000" stroke="#60a5fa" stroke-width="0.2"/>
  <path d="M 442.600 277.000 L 442.600 303.100 L 432.500 303.100 L 432.500 296.900 L 436.400 296.900 L 436.400 277.000 L 442.600 277.000 Z" fill="#000000" stroke="#60a5fa" stroke-width="0.2"/>
  <path d="M 23.095 315.447 L 30.095 326.162 L 24.905 329.553 L 17.905 318.838 L 23.095 315.447 Z" fill="#000000" stroke="#60a5fa" stroke-width="0.2"/>
  <path d="M 40.784 318.507 L 31.160 338.147 L 25.593 335.419 L 35.216 315.779 L 40.784 318.507 Z" fill="#000000" stroke="#60a5fa" stroke-width="0.2"/>
  <path d="M 29.407 341.724 L 19.784 361.364 L 14.216 358.636 L 23.840 338.996 L 29.407 341.724 Z" fill="#000000" stroke="#60a5fa" stroke-width="0.2"/>
  <path d="M 84.960 315.973 L 71.340 325.776 L 92.056 325.106 L 77.919 344.229 L 72.988 340.471 L 80.944 330.608 L 59.660 329.938 L 81.040 311.170 L 84.960 315.973 Z" fill="#000000" stroke="#60a5fa" stroke-width="0.2"/>
  <path d="M 75.512 347.387 L 64.465 361.879 L 59.535 358.121 L 70.581 343.628 L 75.512 347.387 Z" fill="#000000" stroke="#60a5fa" stroke-width="0.2"/>
  <path d="M 65.500 339.043 L 79.500 339.043 L 79.500 345.243 L 65.500 345.243 L 65.500 339.043 Z" fill="#000000" stroke="#60a5fa" stroke-width="0.2"/>
  <path d="M 128.998 316.506 L 107.998 323.649 L 106.002 317.779 L 127.002 310.637 L 128.998 316.506 Z" fill="#000000" stroke="#60a5fa" stroke-width="0.2"/>
  <path d="M 103.500 328.329 L 131.500 328.329 L 131.500 334.529 L 103.500 334.529 L 103.500 328.329 Z" fill="#000000" stroke="#60a5fa" stroke-width="0.2"/>
  <path d="M 120.600 320.714 L 120.600 333.000 L 114.400 333.000 L 114.400 320.714 L 120.600 320.714 Z" fill="#000000" stroke="#60a5fa" stroke-width="0.2"/>
  <path d="M 120.600 337.000 L 120.600 350.551 L 109.214 362.170 L 104.786 357.830 L 114.400 348.020 L 114.400 337.000 L 120.600 337.000 Z" fill="#000000" stroke="#60a5fa" stroke-width="0.2"/>
  <path d="M 154.784 315.779 L 158.284 322.922 L 152.716 325.650 L 149.216 318.507 L 154.784 315.779 Z" fill="#000000" stroke="#60a5fa" stroke-width="0.2"/>
  <path d="M 165.284 315.779 L 168.784 322.922 L 163.216 325.650 L 159.716 318.507 L 165.284 315.779 Z" fill="#000000" stroke="#60a5fa" stroke-width="0.2"/>
  <path d="M 170.328 361.571 L 160.836 345.429 L 166.181 342.287 L 175.672 358.429 L 170.328 361.571 Z" fill="#000000" stroke="#60a5fa" stroke-width="0.2"/>
  <path d="M 158.819 341.999 L 149.328 325.857 L 154.672 322.714 L 164.164 338.857 L 158.819 341.999 Z" fill="#000000" stroke="#60a5fa" stroke-width="0.2"/>
  <path d="M 200.500 317.614 L 214.500 317.614 L 214.500 323.814 L 200.500 323.814 L 200.500 317.614 Z" fill="#000000" stroke="#60a5fa" stroke-width="0.2"/>
  <path d="M 193.500 328.329 L 221.500 328.329 L 221.500 334.529 L 193.500 334.529 L 193.500 328.329 Z" fill="#000000" stroke="#60a5fa" stroke-width="0.2"/>
  <path d="M 210.600 331.429 L 210.600 346.980 L 204.100 353.613 L 199.672 349.273 L 204.400 344.449 L 204.400 331.429 L 210.600 331.429 Z" fill="#000000" stroke="#60a5fa" stroke-width="0.2"/>
  <path d="M 201.328 356.441 L 195.714 362.170 L 191.286 357.830 L 196.900 352.102 L 201.328 356.441 Z" fill="#000000" stroke="#60a5fa" stroke-width="0.2"/>
  <path d="M 255.600 313.571 L 255.600 334.786 L 249.400 334.786 L 249.400 313.571 L 255.600 313.571 Z" fill="#000000" stroke="#60a5fa" stroke-width="0.2"/>
  <path d="M 255.600 338.786 L 255.600 360.000 L 249.400 360.000 L 249.400 338.786 L 255.600 338.786 Z" fill="#000000" stroke="#60a5fa" stroke-width="0.2"/>
  <path d="M 254.714 329.259 L 268.714 343.545 L 264.286 347.884 L 250.286 333.598 L 254.714 329.259 Z" fill="#000000" stroke="#60a5fa" stroke-width="0.2"/>
  <path d="M 283.500 321.186 L 311.500 321.186 L 311.500 327.386 L 283.500 327.386 L 283.500 321.186 Z" fill="#000000" stroke="#60a5fa" stroke-width="0.2"/>
  <path d="M 300.524 314.255 L 295.714 335.521 L 289.667 334.153 L 294.476 312.888 L 300.524 314.255 Z" fill="#000000" stroke="#60a5fa" stroke-width="0.2"/>
  <path d="M 294.833 339.418 L 290.024 360.684 L 283.976 359.316 L 288.786 338.051 L 294.833 339.418 Z" fill="#000000" stroke="#60a5fa" stroke-width="0.2"/>
  <path d="M 332.000 317.614 L 353.000 317.614 L 353.000 323.814 L 332.000 323.814 L 332.000 317.614 Z" fill="#000000" stroke="#60a5fa" stroke-width="0.2"/>
  <path d="M 328.500 346.186 L 356.500 346.186 L 356.500 352.386 L 328.500 352.386 L 328.500 346.186 Z" fill="#000000" stroke="#60a5fa" stroke-width="0.2"/>
  <path d="M 373.500 317.614 L 403.172 317.614 L 391.172 340.063 L 385.705 337.140 L 392.828 323.814 L 373.500 323.814 L 373.500 317.614 Z" fill="#000000" stroke="#60a5fa" stroke-width="0.2"/>
  <path d="M 389.295 343.574 L 379.734 361.461 L 374.266 358.539 L 383.828 340.652 L 389.295 343.574 Z" fill="#000000" stroke="#60a5fa" stroke-width="0.2"/>
  <path d="M 383.370 312.400 L 391.366 331.982 L 385.626 334.326 L 377.630 314.743 L 383.370 312.400 Z" fill="#000000" stroke="#60a5fa" stroke-width="0.2"/>
  <path d="M 392.874 335.674 L 400.870 355.257 L 395.130 357.600 L 387.134 338.018 L 392.874 335.674 Z" fill="#000000" stroke="#60a5fa" stroke-width="0.2"/>
  <path d="M 397.095 340.447 L 404.095 351.162 L 398.905 354.553 L 391.905 343.838 L 397.095 340.447 Z" fill="#000000" stroke="#60a5fa" stroke-width="0.2"/>
  <path d="M 428.600 310.000 L 428.600 317.143 L 422.400 317.143 L 422.400 310.000 L 428.600 310.000 Z" fill="#000000" stroke="#60a5fa" stroke-width="0.2"/>
  <path d="M 418.500 314.043 L 444.471 314.043 L 424.784 354.221 L 419.216 351.493 L 434.529 320.243 L 418.500 320.243 L 418.500 314.043 Z" fill="#000000" stroke="#60a5fa" stroke-width="0.2"/>
  <path d="M 435.600 317.143 L 435.600 336.571 L 429.400 336.571 L 429.400 317.143 L 435.600 317.143 Z" fill="#000000" stroke="#60a5fa" stroke-width="0.2"/>
  <path d="M 435.600 340.571 L 435.600 360.000 L 429.400 360.000 L 429.400 340.571 L 435.600 340.571 Z" fill="#000000" stroke="#60a5fa" stroke-width="0.2"/>
  <path d="M 434.940 333.087 L 448.940 350.944 L 444.060 354.770 L 430.060 336.913 L 434.940 333.087 Z" fill="#000000" stroke="#60a5fa" stroke-width="0.2"/>
  <path d="M 40.825 374.849 L 31.146 396.247 L 25.497 393.692 L 35.175 372.294 L 40.825 374.849 Z" fill="#000000" stroke="#60a5fa" stroke-width="0.2"/>
  <path d="M 29.503 399.879 L 19.825 421.278 L 14.175 418.722 L 23.854 397.324 L 29.503 399.879 Z" fill="#000000" stroke="#60a5fa" stroke-width="0.2"/>
  <path d="M 71.995 377.943 L 67.261 395.657 L 61.271 394.056 L 66.005 376.342 L 71.995 377.943 Z" fill="#000000" stroke="#60a5fa" stroke-width="0.2"/>
  <path d="M 66.229 399.516 L 61.495 417.229 L 55.505 415.628 L 60.239 397.915 L 66.229 399.516 Z" fill="#000000" stroke="#60a5fa" stroke-width="0.2"/>
  <path d="M 78.995 376.342 L 83.729 394.056 L 77.739 395.657 L 73.005 377.943 L 78.995 376.342 Z" fill="#000000" stroke="#60a5fa" stroke-width="0.2"/>
  <path d="M 84.761 397.915 L 89.495 415.628 L 83.505 417.229 L 78.771 399.516 L 84.761 397.915 Z" fill="#000000" stroke="#60a5fa" stroke-width="0.2"/>
  <path d="M 103.500 377.614 L 131.500 377.614 L 131.500 383.814 L 103.500 383.814 L 103.500 377.614 Z" fill="#000000" stroke="#60a5fa" stroke-width="0.2"/>
  <path d="M 113.600 380.714 L 113.600 402.614 L 127.600 402.614 L 127.600 410.857 L 121.400 410.857 L 121.400 408.814 L 107.400 408.814 L 107.400 380.714 L 113.600 380.714 Z" fill="#000000" stroke="#60a5fa" stroke-width="0.2"/>
  <path d="M 127.600 414.857 L 127.600 420.000 L 121.400 420.000 L 121.400 414.857 L 127.600 414.857 Z" fill="#000000" stroke="#60a5fa" stroke-width="0.2"/>
  <path d="M 148.500 377.614 L 182.075 378.001 L 165.141 400.228 L 160.910 408.861 L 155.343 406.133 L 159.859 396.915 L 170.925 383.427 L 148.500 383.814 L 148.500 377.614 Z" fill="#000000" stroke="#60a5fa" stroke-width="0.2"/>
  <path d="M 159.157 412.439 L 154.784 421.364 L 149.216 418.636 L 153.590 409.711 L 159.157 412.439 Z" fill="#000000" stroke="#60a5fa" stroke-width="0.2"/>
  <path d="M 190.590 408.216 L 203.389 374.544 L 214.355 391.685 L 209.068 394.923 L 204.611 386.884 L 196.410 410.355 L 190.590 408.216 Z" fill="#000000" stroke="#60a5fa" stroke-width="0.2"/>
  <path d="M 216.432 395.077 L 224.144 407.667 L 218.856 410.905 L 211.145 398.315 L 216.432 395.077 Z" fill="#000000" stroke="#60a5fa" stroke-width="0.2"/>
  <path d="M 242.000 377.614 L 263.000 377.614 L 263.000 383.814 L 242.000 383.814 L 242.000 377.614 Z" fill="#000000" stroke="#60a5fa" stroke-width="0.2"/>
  <path d="M 255.600 370.000 L 255.600 393.000 L 249.400 393.000 L 249.400 370.000 L 255.600 370.000 Z" fill="#000000" stroke="#60a5fa" stroke-width="0.2"/>
  <path d="M 255.600 397.000 L 255.600 420.000 L 249.400 420.000 L 249.400 397.000 L 255.600 397.000 Z" fill="#000000" stroke="#60a5fa" stroke-width="0.2"/>
  <path d="M 248.095 396.696 L 241.095 407.410 L 235.905 404.019 L 242.905 393.304 L 248.095 396.696 Z" fill="#000000" stroke="#60a5fa" stroke-width="0.2"/>
  <path d="M 262.095 393.304 L 269.095 404.019 L 263.905 407.410 L 256.905 396.696 L 262.095 393.304 Z" fill="#000000" stroke="#60a5fa" stroke-width="0.2"/>
  <path d="M 287.000 377.614 L 308.000 377.614 L 308.000 383.814 L 287.000 383.814 L 287.000 377.614 Z" fill="#000000" stroke="#60a5fa" stroke-width="0.2"/>
  <path d="M 283.500 391.900 L 304.500 391.900 L 304.500 398.100 L 283.500 398.100 L 283.500 391.900 Z" fill="#000000" stroke="#60a5fa" stroke-width="0.2"/>
  <path d="M 300.495 381.515 L 295.761 399.228 L 289.771 397.627 L 294.505 379.914 L 300.495 381.515 Z" fill="#000000" stroke="#60a5fa" stroke-width="0.2"/>
  <path d="M 294.729 403.087 L 289.995 420.800 L 284.005 419.200 L 288.739 401.486 L 294.729 403.087 Z" fill="#000000" stroke="#60a5fa" stroke-width="0.2"/>
  <path d="M 332.998 377.779 L 353.998 384.922 L 352.002 390.792 L 331.002 383.649 L 332.998 377.779 Z" fill="#000000" stroke="#60a5fa" stroke-width="0.2"/>
  <path d="M 329.498 392.065 L 350.498 399.208 L 348.502 405.078 L 327.502 397.935 L 329.498 392.065 Z" fill="#000000" stroke="#60a5fa" stroke-width="0.2"/>
  <path d="M 325.998 406.351 L 346.998 413.494 L 345.002 419.363 L 324.002 412.221 L 325.998 406.351 Z" fill="#000000" stroke="#60a5fa" stroke-width="0.2"/>
  <path d="M 390.284 378.507 L 384.160 391.004 L 378.593 388.276 L 384.716 375.779 L 390.284 378.507 Z" fill="#000000" stroke="#60a5fa" stroke-width="0.2"/>
  <path d="M 382.407 394.581 L 378.471 402.614 L 392.567 402.614 L 398.716 390.065 L 404.284 392.793 L 396.433 408.814 L 368.529 408.814 L 376.840 391.853 L 382.407 394.581 Z" fill="#000000" stroke="#60a5fa" stroke-width="0.2"/>
  <path d="M 389.998 403.878 L 400.498 418.164 L 395.502 421.836 L 385.002 407.550 L 389.998 403.878 Z" fill="#000000" stroke="#60a5fa" stroke-width="0.2"/>
  <path d="M 428.370 375.971 L 436.366 395.553 L 430.626 397.897 L 422.630 378.315 L 428.370 375.971 Z" fill="#000000" stroke="#60a5fa" stroke-width="0.2"/>
  <path d="M 437.874 399.246 L 445.870 418.828 L 440.130 421.172 L 432.134 401.589 L 437.874 399.246 Z" fill="#000000" stroke="#60a5fa" stroke-width="0.2"/>
  <path d="M 442.144 378.762 L 434.432 391.352 L 429.145 388.113 L 436.856 375.524 L 442.144 378.762 Z" fill="#000000" stroke="#60a5fa" stroke-width="0.2"/>
  <path d="M 432.355 394.744 L 424.720 407.209 L 421.284 414.221 L 415.716 411.493 L 419.280 404.219 L 427.068 391.505 L 432.355 394.744 Z" fill="#000000" stroke="#60a5fa" stroke-width="0.2"/>
  <path d="M 17.000 437.614 L 38.000 437.614 L 38.000 443.814 L 17.000 443.814 L 17.000 437.614 Z" fill="#000000" stroke="#60a5fa" stroke-width="0.2"/>
  <path d="M 13.500 448.329 L 41.500 448.329 L 41.500 454.529 L 13.500 454.529 L 13.500 448.329 Z" fill="#000000" stroke="#60a5fa" stroke-width="0.2"/>
  <path d="M 30.600 430.000 L 30.600 447.643 L 24.400 447.643 L 24.400 430.000 L 30.600 430.000 Z" fill="#000000" stroke="#60a5fa" stroke-width="0.2"/>
  <path d="M 30.600 451.643 L 30.600 466.186 L 38.000 466.186 L 38.000 472.386 L 24.400 472.386 L 24.400 451.643 L 30.600 451.643 Z" fill="#000000" stroke="#60a5fa" stroke-width="0.2"/>
  <path d="M 57.632 448.452 L 86.100 440.153 L 86.100 459.290 L 75.284 481.364 L 69.716 478.636 L 79.900 457.853 L 79.900 448.419 L 59.368 454.405 L 57.632 448.452 Z" fill="#000000" stroke="#60a5fa" stroke-width="0.2"/>
  <path d="M 68.095 431.876 L 75.095 442.590 L 69.905 445.981 L 62.905 435.267 L 68.095 431.876 Z" fill="#000000" stroke="#60a5fa" stroke-width="0.2"/>
  <path d="M 79.024 434.255 L 74.214 455.521 L 68.167 454.153 L 72.976 432.888 L 79.024 434.255 Z" fill="#000000" stroke="#60a5fa" stroke-width="0.2"/>
  <path d="M 73.333 459.418 L 68.524 480.684 L 62.476 479.316 L 67.286 458.051 L 73.333 459.418 Z" fill="#000000" stroke="#60a5fa" stroke-width="0.2"/>
  <path d="M 103.500 437.614 L 131.100 437.614 L 131.100 465.243 L 103.500 465.243 L 103.500 459.043 L 124.900 459.043 L 124.900 443.814 L 103.500 443.814 L 103.500 437.614 Z" fill="#000000" stroke="#60a5fa" stroke-width="0.2"/>
  <path d="M 117.100 430.000 L 117.100 453.000 L 110.900 453.000 L 110.900 430.000 L 117.100 430.000 Z" fill="#000000" stroke="#60a5fa" stroke-width="0.2"/>
  <path d="M 117.100 457.000 L 117.100 480.000 L 110.900 480.000 L 110.900 457.000 L 117.100 457.000 Z" fill="#000000" stroke="#60a5fa" stroke-width="0.2"/>
  <path d="M 148.500 434.043 L 176.100 434.043 L 176.100 453.000 L 169.900 453.000 L 169.900 440.243 L 148.500 440.243 L 148.500 434.043 Z" fill="#000000" stroke="#60a5fa" stroke-width="0.2"/>
  <path d="M 176.100 457.000 L 176.100 475.957 L 148.500 475.957 L 148.500 469.757 L 169.900 469.757 L 169.900 457.000 L 176.100 457.000 Z" fill="#000000" stroke="#60a5fa" stroke-width="0.2"/>
  <path d="M 155.500 451.900 L 173.000 451.900 L 173.000 458.100 L 155.500 458.100 L 155.500 451.900 Z" fill="#000000" stroke="#60a5fa" stroke-width="0.2"/>
  <path d="M 200.500 434.043 L 214.500 434.043 L 214.500 440.243 L 200.500 440.243 L 200.500 434.043 Z" fill="#000000" stroke="#60a5fa" stroke-width="0.2"/>
  <path d="M 197.000 448.329 L 221.100 448.329 L 221.100 467.185 L 212.741 474.009 L 208.820 469.206 L 214.900 464.243 L 214.900 454.529 L 197.000 454.529 L 197.000 448.329 Z" fill="#000000" stroke="#60a5fa" stroke-width="0.2"/>
  <path d="M 209.680 476.508 L 202.460 482.401 L 198.540 477.599 L 205.759 471.705 L 209.680 476.508 Z" fill="#000000" stroke="#60a5fa" stroke-width="0.2"/>
  <path d="M 248.600 437.143 L 248.600 458.571 L 242.400 458.571 L 242.400 437.143 L 248.600 437.143 Z" fill="#000000" stroke="#60a5fa" stroke-width="0.2"/>
  <path d="M 262.600 433.571 L 262.600 451.214 L 256.400 451.214 L 256.400 433.571 L 262.600 433.571 Z" fill="#000000" stroke="#60a5fa" stroke-width="0.2"/>
  <path d="M 262.600 455.214 L 262.600 474.123 L 254.714 482.170 L 250.286 477.830 L 256.400 471.591 L 256.400 455.214 L 262.600 455.214 Z" fill="#000000" stroke="#60a5fa" stroke-width="0.2"/>
  <path d="M 290.100 437.143 L 290.100 457.649 L 295.508 465.926 L 290.318 469.317 L 283.900 459.494 L 283.900 437.143 L 290.100 437.143 Z" fill="#000000" stroke="#60a5fa" stroke-width="0.2"/>
  <path d="M 297.682 469.254 L 303.595 478.304 L 298.405 481.696 L 292.492 472.645 L 297.682 469.254 Z" fill="#000000" stroke="#60a5fa" stroke-width="0.2"/>
  <path d="M 307.600 437.143 L 307.600 449.429 L 301.400 449.429 L 301.400 437.143 L 307.600 437.143 Z" fill="#000000" stroke="#60a5fa" stroke-width="0.2"/>
  <path d="M 307.600 453.429 L 307.600 466.731 L 299.532 477.200 L 301.400 476.900 L 301.400 472.857 L 307.600 472.857 L 307.600 483.100 L 288.468 482.800 L 301.400 464.698 L 301.400 453.429 L 307.600 453.429 Z" fill="#000000" stroke="#60a5fa" stroke-width="0.2"/>
  <path d="M 335.100 437.143 L 335.100 453.000 L 328.900 453.000 L 328.900 437.143 L 335.100 437.143 Z" fill="#000000" stroke="#60a5fa" stroke-width="0.2"/>
  <path d="M 335.100 457.000 L 333.628 466.875 L 350.328 435.572 L 355.672 438.714 L 330.372 478.839 L 328.900 457.000 L 335.100 457.000 Z" fill="#000000" stroke="#60a5fa" stroke-width="0.2"/>
  <path d="M 370.400 453.000 L 370.400 434.043 L 404.600 434.043 L 404.600 453.000 L 398.400 453.000 L 398.400 440.243 L 376.600 440.243 L 376.600 453.000 L 370.400 453.000 Z" fill="#000000" stroke="#60a5fa" stroke-width="0.2"/>
  <path d="M 404.600 457.000 L 404.600 475.957 L 370.400 475.957 L 370.400 457.000 L 376.600 457.000 L 376.600 469.757 L 398.400 469.757 L 398.400 457.000 L 404.600 457.000 Z" fill="#000000" stroke="#60a5fa" stroke-width="0.2"/>
  <path d="M 433.104 465.788 L 439.900 457.466 L 439.900 440.243 L 425.100 440.243 L 425.100 456.571 L 418.900 456.571 L 418.900 434.043 L 446.100 434.043 L 446.100 459.676 L 437.906 469.710 L 433.104 465.788 Z" fill="#000000" stroke="#60a5fa" stroke-width="0.2"/>
  <path d="M 425.100 460.571 L 425.100 480.000 L 418.900 480.000 L 418.900 460.571 L 425.100 460.571 Z" fill="#000000" stroke="#60a5fa" stroke-width="0.2"/>
  <path d="M 435.396 472.783 L 427.901 481.961 L 423.099 478.039 L 430.594 468.861 L 435.396 472.783 Z" fill="#000000" stroke="#60a5fa" stroke-width="0.2"/>
  <path d="M 17.000 494.043 L 38.000 494.043 L 38.000 500.243 L 17.000 500.243 L 17.000 494.043 Z" fill="#000000" stroke="#60a5fa" stroke-width="0.2"/>
  <path d="M 13.500 508.329 L 34.500 508.329 L 34.500 514.529 L 13.500 514.529 L 13.500 508.329 Z" fill="#000000" stroke="#60a5fa" stroke-width="0.2"/>
  <path d="M 26.214 509.259 L 42.590 525.969 L 32.741 534.009 L 28.820 529.206 L 33.410 525.460 L 21.786 513.598 L 26.214 509.259 Z" fill="#000000" stroke="#60a5fa" stroke-width="0.2"/>
  <path d="M 29.680 536.508 L 22.460 542.401 L 18.540 537.599 L 25.759 531.705 L 29.680 536.508 Z" fill="#000000" stroke="#60a5fa" stroke-width="0.2"/>
  <path d="M 64.214 498.545 L 71.214 505.687 L 66.786 510.027 L 59.786 502.884 L 64.214 498.545 Z" fill="#000000" stroke="#60a5fa" stroke-width="0.2"/>
  <path d="M 59.216 538.636 L 68.840 518.996 L 74.407 521.724 L 64.784 541.364 L 59.216 538.636 Z" fill="#000000" stroke="#60a5fa" stroke-width="0.2"/>
  <path d="M 70.593 515.419 L 80.216 495.779 L 85.784 498.507 L 76.160 518.147 L 70.593 515.419 Z" fill="#000000" stroke="#60a5fa" stroke-width="0.2"/>
</svg>